<svg xmlns="http://www.w3.org/2000/svg" viewBox="0 0 399.82 399.82"><defs><style>.cls-1{fill:#7ac143;}.cls-2{fill:#212121;}</style></defs><g id="Layer_2" data-name="Layer 2"><g id="Layer_1-2" data-name="Layer 1"><rect class="cls-1" width="399.82" height="399.82" rx="38.61"/><path class="cls-2" d="M276,179.24c23.54-20.67,31.75-37.49,33.58-41.38,6.62-14.05,14.64-31.11,6.38-43.51-7-10.5-23.4-14.29-40.76-10.77a93.22,93.22,0,0,1-23,74.34c-16.32,18.18-37.92,28.52-59.4,27.91-18.28-.51-46.85-7.8-56.81-28.57-10.25-21.38,8-38.46-5.11-58.27-6.57-9.9-19.78-18.65-31.66-16-11.52,2.61-18,14.81-17.91,16.34a125.48,125.48,0,0,0,30.58,78.86,116.6,116.6,0,0,0,48.64,33.61C151,223.38,136.72,240,118.29,259.1c-25.67,26.63-41,39-37.38,48.47,3.52,9.29,22.85,9.79,28.1,9.93,30.56.79,61.34-19.76,76.24-48a91.41,91.41,0,0,0,10.29-39.15c20.19,48.19,50.38,77.12,70.78,72.8a41.79,41.79,0,0,0,22.84-14.87,41.24,41.24,0,0,0,8.48-24.87c-.64-20.35-31.39-42.3-76.62-49.54A210,210,0,0,0,276,179.24Z"/><path class="cls-2" d="M181.89,161.37c30.63,14.36,60.47-15.48,46.12-46.12a29.51,29.51,0,0,0-14.06-14c-30.63-14.35-60.46,15.48-46.12,46.11A29.45,29.45,0,0,0,181.89,161.37Z"/></g></g></svg>