<svg xmlns="http://www.w3.org/2000/svg" viewBox="0 0 1001.21 298.12"><defs><style>.cls-1{fill:#7ac143;}.cls-2,.cls-3{fill:#212121;}.cls-3{font-size:43.78px;font-family:MyriadPro-Regular, Myriad Pro;}</style></defs><g id="Layer_2" data-name="Layer 2"><g id="Layer_1-2" data-name="Layer 1"><path class="cls-1" d="M29.12,214.07H0V44.55H27.36V66.63q13.2-24.72,38.81-24.72,21.09,0,33.65,18.33T112.38,107q0,27-12,46.94T64.66,173.91q-24.48,0-35.54-20.33Zm0-94.74q0,13.81,8.22,22.9t18.27,9.1q13.69,0,20-12T82,108.91q0-19.32-6.41-31.42T56.5,65.38q-11.43,0-19.41,9.91t-8,26Z"/><path class="cls-1" d="M154.14,171.28H125.5V0h28.64Z"/><path class="cls-1" d="M312.25,144a17.13,17.13,0,0,0,6.23-1.42,33.45,33.45,0,0,0,8.61-5.55,109.49,109.49,0,0,0,11.77-11.77c4.53-5.08,9.82-11.7,15.94-19.83l18.75,17.22a245.38,245.38,0,0,1-19.41,23.86,116,116,0,0,1-16.79,15.05,55.28,55.28,0,0,1-14.72,7.73,43.8,43.8,0,0,1-13.2,2.18,26.72,26.72,0,0,1-12-2.4,22.69,22.69,0,0,1-8-6.54,31.72,31.72,0,0,1-4.9-9.49,56,56,0,0,1-2.41-11.21q-7.18,5.65-15.36,11a148.75,148.75,0,0,1-17.12,9.59,113.1,113.1,0,0,1-18.56,6.86,73.62,73.62,0,0,1-19.41,2.61,42.42,42.42,0,0,1-17.76-3.6,40.65,40.65,0,0,1-13.54-9.69,43.53,43.53,0,0,1-8.51-13.85A45.45,45.45,0,0,1,169,128.56a49.54,49.54,0,0,1,5.44-23A71.09,71.09,0,0,1,189,86.38a106.25,106.25,0,0,1,21.17-15.26A152.1,152.1,0,0,1,235.49,60a177.08,177.08,0,0,1,26.92-6.77A159.47,159.47,0,0,1,288.48,51,88.1,88.1,0,0,1,305,52.38a114.21,114.21,0,0,1,12.76,3.17,84.9,84.9,0,0,1,11.36,4.36q-4.4,12.2-8.18,23.86t-6.77,21.79q-3,10.16-4.59,18A65.5,65.5,0,0,0,307.89,136Q307.89,144,312.25,144ZM211.5,145.78q8.49,0,20.48-4.58a105.77,105.77,0,0,0,24.33-13.51,129.23,129.23,0,0,0,23.23-22,98.77,98.77,0,0,0,17-30.08,165.76,165.76,0,0,0-37.63,4.24A138.94,138.94,0,0,0,226.65,91.4q-14.07,7.3-22.69,17t-8.61,20.38a21.85,21.85,0,0,0,1.3,8.06,13.1,13.1,0,0,0,3.62,5.23,13.87,13.87,0,0,0,5.23,2.84A21,21,0,0,0,211.5,145.78Z"/><path class="cls-2" d="M631.24,74.1l-20.19,5.45q-5.56-18.81-21.17-18.82-7.18,0-11.58,4.46a15.07,15.07,0,0,0-4.4,11q0,7.42,4.46,10.9t20.43,8.67q19.69,6.56,28.36,14.79t8.67,23a36.73,36.73,0,0,1-12.39,28.05Q611.05,173,590,173q-39.75,0-45.07-36.4l21.91-4.09q4.21,21.55,23.9,21.55,10,0,14.92-4.95a16.17,16.17,0,0,0,4.9-11.77,15.92,15.92,0,0,0-3.35-9.35q-3.35-4.64-18.7-9.59-14.73-4.71-22.22-8.8A32.94,32.94,0,0,1,554,97.82a32.41,32.41,0,0,1-4.83-17.52,36.32,36.32,0,0,1,11.64-27.18q11.64-11.22,30.09-11.21Q622.19,41.91,631.24,74.1Z"/><path class="cls-2" d="M634.81,41.91h27.58l23.15,91.32L709.3,41.91h24.77L690.89,183.3q-4.74,15.39-8.69,22.77A31.27,31.27,0,0,1,671,218q-7.23,4.54-18.69,4.55a57,57,0,0,1-14.09-1.85V198.83a56.62,56.62,0,0,0,9.61.92q10.67,0,15.14-5.2t9.61-24.16Z"/><path class="cls-2" d="M743.1,41.91h24.37V64.75q8.91-22.84,31.79-22.84,13,0,20.92,6.22A26.6,26.6,0,0,1,830.23,63q2.1,8.7,2.09,27.48v82.62h-26.4V92q0-16.74-2.91-22.76t-12.48-6q-9.94,0-15.49,7.67t-5.54,30.49v71.75H743.1Z"/><path class="cls-1" d="M526.43,114.47a84,84,0,0,1-35.92,23c.43-3.83.64-8.08.85-12.76.21-4.88.43-9.14.43-13a211.5,211.5,0,0,0-1.49-26.15c-.85-8.71-1.7-17.43-2.76-26.14L462.24,62l1.92,30.61c-3.62,3-8.08,6.37-13,10.2s-10.2,8.08-15.94,12.12c-5.74,4.25-11.48,8.5-17.43,12.54-6.17,4.25-12.12,7.86-18.07,11.26a154.36,154.36,0,0,1-17.22,8.08,48.64,48.64,0,0,1-15.09,3.4c.21-7,2.34-13.82,6.38-20.83a95.69,95.69,0,0,1,14.88-20,176.25,176.25,0,0,1,18.91-16.79,157.69,157.69,0,0,1,18.71-11.91L414.2,56.23a152.67,152.67,0,0,0-25.93,16.15,169.68,169.68,0,0,0-24,22.11,118.6,118.6,0,0,0-17.43,26.36,64.58,64.58,0,0,0-6.8,28.69c0,8.93,2.55,15.94,7.65,20.83A25.84,25.84,0,0,0,366.59,178a53.15,53.15,0,0,0,17.22-3.19,124.37,124.37,0,0,0,18.7-7.66c6.17-3.4,12.55-6.8,18.71-10.84,6.16-3.82,11.9-7.86,17.43-11.69,5.53-4,10.41-7.65,14.88-11.05,4.46-3.61,7.86-6.38,10.63-8.5-.43,4.46-.86,8.93-1.49,13.6-.64,4.47-1.49,9.14-2.55,13.61-6.59,3.82-13.61,8.29-21.47,13.39s-15.73,10.84-23.59,17c-7.66,6-14.88,12.33-22.11,19.13a5.7,5.7,0,0,0-1.28,1.06,167.26,167.26,0,0,0-14.45,15.73,86,86,0,0,0-5.31,6.8,113.45,113.45,0,0,0-14,24.45,66.37,66.37,0,0,0-5.1,25.29c0,6.59,1.91,12.12,6,16.37,4,4.46,9.14,6.59,15.51,6.59a24.2,24.2,0,0,0,5.53-.64,33.26,33.26,0,0,0,9.57-3,106,106,0,0,0,14.87-8.5c.22-.21.22-.42.43-.42a126.86,126.86,0,0,0,14.24-11.69c4.46-4,8.29-7.87,11.69-11.27a242.28,242.28,0,0,0,17.22-20.83c1.06-1.49,2.12-3.19,3.19-4.68,4-6.16,7.86-12.32,11.69-18.7a224.56,224.56,0,0,0,12.11-24.87,257.93,257.93,0,0,0,9.14-25.29c5.74-1.92,11.69-4.25,17.64-6.8a157.39,157.39,0,0,0,16.8-8.51,132.19,132.19,0,0,0,14.88-10.2,73.85,73.85,0,0,0,11.69-11.05Zm-83.74,83.32a154.71,154.71,0,0,1-9.57,16.58,21.76,21.76,0,0,1-1.91,2.76A154.75,154.75,0,0,1,418,235.63a187.44,187.44,0,0,1-17.64,18.91,25.08,25.08,0,0,1-3.83,3.19,72.14,72.14,0,0,1-15.3,10.42,66.15,66.15,0,0,1,9.56-21.47A126.94,126.94,0,0,1,400,234.14v-.21l7-7.66c3.19-3.4,6.59-6.8,10-9.77a111.37,111.37,0,0,1,9.35-8.29c4.89-4.25,9.78-7.87,14.24-11.27,1.49-1.06,3-2.12,4.25-3.19C444.18,195,443.54,196.3,442.69,197.79Z"/><path class="cls-2" d="M930.58,87l-24.89,2.73q-1.86-16.35-6.32-21.86t-12.63-5.51q-11.52,0-16.72,10.59t-5.2,37.21q0,41.61,21.92,41.61,16.85,0,19-27.12l24.89,2.23Q925.5,173,884.88,173q-24,0-35.6-17.33T837.7,107.79q0-32.21,12.51-49t36.41-16.84Q925.13,41.91,930.58,87Z"/><text class="cls-3" transform="translate(944.25 75.01)">TM</text></g></g></svg>